# xmcd CD database file
#
# Track frame offsets:
#	150
#	4854
#	29850
#	57151
#	80816
#	105595
#	131315
#	147545
#	162302
#
# Disc length: 2385 seconds
#
# Revision: 0
# Processed by: cddbd v1.5.1PL0 Copyright (c) Steve Scherf et al.
# Submitted via: CDex 1.51
#
DISCID=7b094f09
DTITLE=Metrik - 2
DYEAR=2005
DGENRE=Rhythmic Soul
TTITLE0=10 (a la) 9 KM/H
TTITLE1=Proxima Centuri
TTITLE2=Dimetapp
TTITLE3=Manosaurus
TTITLE4=Morning Motif
TTITLE5=Halab
TTITLE6=Funky Dribble
TTITLE7=Hit by a Truck
TTITLE8=When the lights go out
EXTD=YEAR: 2005
EXTT0=
EXTT1=
EXTT2=
EXTT3=
EXTT4=
EXTT5=
EXTT6=
EXTT7=
EXTT8=
PLAYORDER=
